<?xml version="1.0" encoding="UTF-8"?>
<!DOCTYPE svg PUBLIC "-//W3C//DTD SVG 1.1//EN" "http://www.w3.org/Graphics/SVG/1.1/DTD/svg11.dtd">
<!-- Creator: CorelDRAW 2020 (64-Bit) -->
<svg xmlns="http://www.w3.org/2000/svg" xml:space="preserve" width="8.5px" height="11px" version="1.1" style="shape-rendering:geometricPrecision; text-rendering:geometricPrecision; image-rendering:optimizeQuality; fill-rule:evenodd; clip-rule:evenodd"
    viewBox="0 0 8500 11000">
 <!--<defs>
  <style type="text/css">
   <![CDATA[
    .fil0 {fill:#5D69B3;fill-rule:nonzero}
    .fil1 {fill:#E6E6E6;fill-rule:nonzero}
   ]]>
  </style>
 </defs>-->
    <g id="Layer_x0020_1">
  <metadata id="CorelCorpID_0Corel-Layer"/>
        <g id="_2241577569904">
   <path class="fil0" d="M4399.37 6499.38l0 792.35 -300.2 0 0 -792.35 300.2 0 0 0zm124.4 -91.71l-548.98 0 0 975.76 548.98 0 0 -975.76 0 0z"/>
            <path class="fil0" d="M4646.85 7042.61l0 276.5c0,82.54 -90.69,149.39 -202.52,149.39l-390.11 0c-111.83,0 -202.52,-66.85 -202.52,-149.39l0 -276.5 795.14 0 0 0z"/>
            <path class="fil0" d="M5980.87 4749.74c20.15,329.05 -128.75,632.14 -387.99,866.27 -395.08,356.65 -746.25,738.24 -1069.19,1132.5l-156.37 0c138.33,-394.25 288.85,-775.85 458.02,-1132.5 111.21,-234.13 175.02,-537.22 166.32,-866.27 -17.17,-654.7 -325.55,-1186.15 -706.08,-1216.78 -11.94,-0.92 -23.63,-1.47 -35.45,-1.47 27.5,0 55.11,0.55 82.97,1.47 887.94,30.63 1607.57,562.07 1647.76,1216.78l0 0z"/>
            <path class="fil0" d="M4132.1 6748.51l-157.36 0c-332.01,-400.12 -698.74,-784.1 -1090.83,-1153.95 -229.76,-216.61 -366.6,-489.26 -366.6,-785.57 0,-705.51 775.61,-1277.31 1732.59,-1277.49 -410.01,0.19 -742.4,571.98 -742.4,1277.49 0,296.31 58.71,568.95 157.11,785.57 167.94,369.85 325.17,753.84 467.48,1153.95l0 0z"/>
            <path class="fil1" d="M4991.68 4749.74c8.71,329.05 -55.1,632.14 -166.31,866.27 -169.18,356.65 -319.7,738.24 -458.03,1132.5l-235.23 0c-142.31,-400.12 -299.55,-784.1 -467.48,-1153.96 -98.39,-216.61 -157.11,-489.26 -157.11,-785.57 0,-705.51 332.39,-1277.3 742.4,-1277.48 0.13,0 0.13,0 0.25,0 11.82,0 23.51,0.55 35.46,1.47 380.52,30.63 688.9,562.07 706.07,1216.78l-0.02 -0z"/>
  </g>
 </g>
</svg>
