<?xml version="1.0" encoding="UTF-8"?>
<!DOCTYPE svg PUBLIC "-//W3C//DTD SVG 1.1//EN" "http://www.w3.org/Graphics/SVG/1.1/DTD/svg11.dtd">
<!-- Creator: CorelDRAW 2020 (64-Bit) -->
<svg xmlns="http://www.w3.org/2000/svg" xml:space="preserve" width="8.5px" height="11px" version="1.1"
    style="shape-rendering:geometricPrecision; text-rendering:geometricPrecision; image-rendering:optimizeQuality; fill-rule:evenodd; clip-rule:evenodd"
    viewBox="0 0 8500 11000">
 <defs>
  <!--<style type="text/css">
   <![CDATA[
    .fil0 {fill:#5D69B3;fill-rule:nonzero}
   ]]>
  </style>-->
 </defs>
 <g id="Layer_x0020_1">
  <metadata id="CorelCorpID_0Corel-Layer"/>
  <g id="_2330956543952">
   <path class="fil0" d="M3025.82 3541.25c-115.03,28.31 -171.65,69.02 -228.28,161.04 -54.86,90.25 -102.65,122.1 -182.28,122.1 -23.01,0 -46.01,7.08 -53.09,17.7 -15.93,26.54 47.78,88.48 92.02,88.48 51.32,0 51.32,5.31 -12.39,95.56 -53.09,79.63 -148.65,132.72 -244.21,136.26l-47.78 1.77 44.24 14.16c24.77,7.08 84.94,15.93 132.72,15.93 77.86,1.77 84.94,5.31 58.39,26.54 -42.46,31.85 -40.7,46.01 5.31,46.01 37.17,0 37.17,1.77 -7.08,74.32 -23.01,40.7 -69.02,88.48 -100.87,106.17 -47.78,24.77 -53.09,33.63 -30.08,42.47 31.85,10.61 84.94,3.54 143.34,-19.47 28.31,-12.39 30.08,-10.61 10.61,24.77 -10.61,23.01 -15.93,44.24 -10.61,49.55 15.93,17.7 247.74,-90.25 307.92,-143.34 49.55,-42.46 61.94,-47.78 76.09,-26.54 8.85,14.16 14.16,47.78 12.39,77.86 -5.31,49.55 -15.93,56.62 -182.28,123.87 -148.65,58.39 -192.89,84.94 -274.29,168.11 -107.94,109.72 -260.14,352.15 -276.06,444.17 -15.93,81.4 -118.57,274.29 -189.35,357.46l-56.62 65.48 -97.33 -26.54c-53.09,-14.15 -173.42,-35.39 -267.21,-47.78 -199.96,-24.77 -265.44,-7.08 -311.45,79.63 -54.86,109.71 19.47,352.15 171.65,553.89l67.25 90.25 -210.59 122.1c-115.03,67.24 -210.59,127.41 -210.59,132.72 0,14.15 67.25,33.62 118.57,33.62 21.24,0 106.17,-38.94 189.35,-88.48l148.65 -88.48 150.42 15.93c81.4,7.08 159.26,21.24 171.65,28.31 12.39,7.08 118.57,19.46 235.36,28.31 201.73,12.39 217.66,15.93 352.15,86.71 175.19,90.25 322.07,123.87 564.51,123.87 178.73,0 189.35,1.77 256.59,53.09 60.17,46.01 83.18,53.09 192.89,53.09 92.02,0 152.19,12.39 230.06,46.01 272.52,115.03 633.52,199.96 764.47,178.73 53.09,-8.84 86.72,0 185.81,53.09 65.48,33.63 115.03,70.79 107.94,79.63 -14.15,24.77 -251.28,5.31 -467.18,-38.94l-171.65 -35.39 -155.72 83.17c-86.72,46.01 -217.66,102.64 -290.22,125.64l-132.72 40.7 141.57 -10.61c77.86,-3.54 208.82,-26.54 291.99,-49.55 122.1,-35.39 169.88,-40.7 247.74,-28.31 53.09,7.08 157.5,14.16 230.06,15.93l132.72 1.77 -97.33 51.32c-106.17,58.39 -97.33,58.39 146.88,-1.77 76.09,-19.47 178.73,-51.32 230.06,-70.79 95.56,-37.17 99.1,-37.17 268.98,8.84 69.02,19.47 221.2,35.39 433.56,44.24 357.46,14.16 361,15.93 555.66,153.96 99.1,69.02 152.18,74.32 327.37,31.85 237.13,-60.17 412.32,-162.81 642.37,-376.93 368.08,-345.07 196.43,-553.89 -552.12,-663.6 -327.37,-47.78 -589.28,-70.79 -1449.31,-127.41 -173.42,-10.61 -187.57,-14.15 -286.68,-79.63 -293.76,-194.66 -771.56,-437.1 -980.36,-493.72l-106.17 -30.08 -15.93 -113.26c-14.15,-107.94 -12.38,-120.33 42.47,-226.51 37.17,-74.32 56.62,-138.03 56.62,-187.58 0,-61.94 7.08,-79.63 42.47,-97.33 37.17,-21.24 56.62,-15.93 162.81,33.63 138.03,61.93 256.59,99.1 380.47,116.8 116.8,15.93 153.95,0 153.95,-63.7 0,-120.33 -90.25,-237.13 -221.2,-283.14 -65.48,-24.77 -83.18,-51.32 -31.85,-51.32 15.93,0 129.18,-58.39 251.28,-130.95 382.24,-224.74 392.85,-228.29 601.67,-244.21 274.3,-23.01 428.25,-61.94 610.52,-152.18 115.03,-56.63 192.89,-111.49 268.98,-189.35 171.65,-169.88 268.98,-405.24 194.66,-467.18 -40.7,-33.62 -145.11,3.54 -284.91,102.64 -493.72,346.84 -560.97,385.78 -769.79,453.03 -111.48,37.17 -235.35,83.17 -274.29,102.64 -141.57,70.79 -637.06,373.39 -651.22,396.39 -7.08,12.39 -38.94,35.39 -69.02,51.32 -53.09,26.54 -54.86,26.54 -171.65,-51.32 -176.96,-116.8 -240.67,-146.88 -426.48,-189.35 -92.02,-21.24 -176.96,-42.46 -187.58,-44.24 -44.24,-12.39 -56.62,-228.28 -17.7,-284.91 38.94,-54.87 38.94,-125.64 0,-373.39 -10.61,-67.25 -123.87,-210.59 -164.57,-205.28 -15.93,1.77 -31.85,-5.31 -38.94,-14.16 -15.93,-26.54 -122.1,-33.62 -198.2,-15.93l0 0 0.02 0.01zm-313.22 2056.3c-19.47,15.93 -95.56,61.93 -169.88,102.64 -122.1,67.25 -138.03,70.79 -194.66,53.09 -33.62,-10.61 -60.17,-24.77 -60.17,-30.08 0,-24.77 95.56,-138.03 260.14,-311.45 100.87,-106.17 184.04,-201.73 185.81,-212.35 1.77,-12.39 7.08,65.48 10.61,173.42 5.31,178.73 1.77,196.43 -31.85,224.74l0 -0.01z"/>
  </g>
 </g>
</svg>
