<?xml version="1.0" encoding="UTF-8"?>
<!DOCTYPE svg PUBLIC "-//W3C//DTD SVG 1.1//EN" "http://www.w3.org/Graphics/SVG/1.1/DTD/svg11.dtd">
<!-- Creator: CorelDRAW 2020 (64-Bit) -->
<svg xmlns="http://www.w3.org/2000/svg" xml:space="preserve" width="8.5px" height="11px" version="1.1" style="shape-rendering:geometricPrecision; text-rendering:geometricPrecision; image-rendering:optimizeQuality; fill-rule:evenodd; clip-rule:evenodd"
viewBox="0 0 8500 11000">
 <!--<defs>
  <style type="text/css">
   <![CDATA[
    .fil0 {fill:#5D69B3;fill-rule:nonzero}
    .fil1 {fill:#F1F2F2;fill-rule:nonzero}
   ]]>
  </style>
 </defs>-->
 <g id="Layer_x0020_1">
  <metadata id="CorelCorpID_0Corel-Layer"/>
  <g id="_2291201027664">
   <path class="fil0" d="M3168.4 5348.58l2292.98 0 0 173.06c0,47.57 -38.95,86.53 -86.53,86.53l-2119.93 0c-47.57,0 -86.53,-38.95 -86.53,-86.53l0 -173.05 -0 -0z"/>
   <rect class="fil0" x="2605.97" y="4007.4" width="259.58" height="951.8"/>
   <path class="fil0" d="M5634.44 3877.61l0 346.11 -173.06 0 0 605.69 0 519.17 -2292.98 0 -43.26 0c-143.65,0 -259.58,-115.93 -259.58,-259.58l0 -129.79 0 -951.8 0 -129.79c0,-143.65 115.93,-259.58 259.58,-259.58l2249.72 0c143.65,0 259.58,115.93 259.58,259.58l0 0z"/>
   <path class="fil0" d="M4812.43 5954.27l0 432.64c0,47.57 -38.95,86.53 -86.53,86.53l-216.32 0 -519.17 0 -216.32 0c-47.57,0 -86.53,-38.95 -86.53,-86.53l0 -173.06 0 -259.58 1124.86 0 0 0z"/>
   <polygon class="fil0" points="5894.02,4223.72 5894.02,4829.41 5461.39,4829.41 5461.39,4223.72 5634.44,4223.72 "/>
   <path class="fil0" d="M4509.58 6949.34l951.8 0 0 -1427.71 0 -173.06 0 -519.17 432.63 0 0 2336.25c0,119.4 -96.92,216.32 -216.32,216.32l-1470.96 0c-105.58,0 -192.96,-75.29 -212.01,-175.68l-4.31 2.63 0 -475.9 0 -259.58 519.17 0 0 259.58 0 216.32 0 0z"/>
   <path class="fil1" d="M5245.06 3964.14l0 1038.33 -778.75 0 -216.32 -432.64 -216.32 432.64 -648.96 0c-95.19,0 -173.06,-77.86 -173.06,-173.06l0 -692.22c0,-95.19 77.86,-173.06 173.06,-173.06l1860.34 0z"/>
   <path class="fil0" d="M3601.04 4483.3l-173.06 0 0 -216.32c0,-47.79 38.74,-86.52 86.52,-86.52l216.32 0 0 173.06 -129.79 0 0 129.79 0 -0z"/>
   <path class="fil0" d="M3384.72 4050.67l1860.34 0 0 -173.06 -1860.34 0c-143.13,0 -259.58,116.45 -259.58,259.59l0 692.22c0,143.14 116.45,259.58 259.58,259.58l648.96 0c32.78,0 62.74,-18.52 77.39,-47.83l138.93 -277.85 138.93 277.85c14.66,29.31 44.62,47.83 77.39,47.83l778.74 0 0 -173.06 -725.28 0 -183.26 -366.54 0 -239.15 -173.06 0 0 239.15 -183.26 366.54 -595.48 0c-47.71,0 -86.53,-38.81 -86.53,-86.53l0 -692.22c0,-47.71 38.81,-86.53 86.53,-86.53z"/>
   <path class="fil0" d="M5894.02 4137.19l-173.06 0 0 -259.58c0,-190.85 -155.27,-346.11 -346.11,-346.11l-2249.72 0c-190.85,0 -346.11,155.27 -346.11,346.11l0 43.26 -173.06 0c-47.79,0 -86.53,38.74 -86.53,86.53l0 951.8c0,47.79 38.74,86.53 86.53,86.53l173.06 0 0 43.26c0,176.19 132.36,321.94 302.85,343.31l0 89.33c0,95.42 77.63,173.06 173.06,173.06l2119.93 0 0 1168.12 -778.75 0 0 -302.85 129.8 0c95.42,0 173.06,-77.63 173.06,-173.06l0 -432.64c0,-47.79 -38.74,-86.53 -86.53,-86.53l-1124.86 0c-47.79,0 -86.53,38.74 -86.53,86.53l0 432.64c0,95.43 77.63,173.06 173.06,173.06l129.79 0 0 648.96c0,17.33 5.18,33.92 14.45,47.87 39.13,124.54 155.29,211.71 288.4,211.71l1470.96 0c166.99,0 302.85,-135.86 302.85,-302.85l0 -2336.25 0 -605.69c0,-47.79 -38.74,-86.52 -86.53,-86.52l-0.01 0zm-86.52 605.69l-259.58 0 0 -432.64 259.58 0 0 432.64zm-3115 -648.96l86.53 0 0 778.75 -86.53 0 0 -778.75zm259.59 995.07l0 -129.79 0 -951.8 0 -129.79c0,-95.43 77.63,-173.06 173.06,-173.06l2249.72 0c95.43,0 173.06,77.63 173.06,173.06l0 259.58 -86.53 0c-47.79,0 -86.53,38.74 -86.53,86.53l0 605.69 0 432.64 -2249.72 0c-95.43,0 -173.06,-77.63 -173.06,-173.06l-0 0zm302.85 432.64l0 -86.53 2119.93 0 0 86.53 -2119.93 0zm519.17 778.75l778.75 0 0 -173.06 -778.75 0 0 -86.53 951.8 0 0.01 346.11 -951.81 0 0 -86.52zm2033.4 865.28c0,71.56 -58.22,129.79 -129.79,129.79l-1470.97 0c-62.02,0 -115.42,-44.28 -127,-105.29 -0.7,-3.7 -1.64,-7.31 -2.8,-10.83l0 -619.36 346.11 0 0 302.85 -216.32 0 0 173.06 302.85 0 951.8 0c47.79,0 86.53,-38.74 86.53,-86.53l0 -1427.7 0 -173.06 0 -432.64 259.58 0 0 2249.72 0 -0z"/>
  </g>
 </g>
</svg>
