<?xml version="1.0" encoding="UTF-8"?><!DOCTYPE svg PUBLIC "-//W3C//DTD SVG 1.1//EN"
    "http://www.w3.org/Graphics/SVG/1.1/DTD/svg11.dtd"><!-- Creator: CorelDRAW 2020 (64-Bit) -->
<svg xmlns="http://www.w3.org/2000/svg" xml:space="preserve" width="0.533331in" height="0.3in"
    version="1.1"
    style="shape-rendering:geometricPrecision; text-rendering:geometricPrecision; image-rendering:optimizeQuality; fill-rule:evenodd; clip-rule:evenodd"
    viewBox="0 0 533.33 300">
 <defs>
  <style type="text/css">
   <![CDATA[
    .fil0 {fill:white;fill-rule:nonzero}
   ]]>
  </style>
 </defs>
    <g id="Layer_x0020_1">
  <metadata id="CorelCorpID_0Corel-Layer" />
        <path class="fil0"
            d="M526.33 164.22l-173 65.28 0 -31.39 103.61 -37c11.17,-4 22.78,-7.72 34.83,-11.11 -9.11,-2.61 -20.06,-6.22 -32.89,-10.94l-105.56 -38.44 0 -30.11 173 65.5 0 28.22z" />
        <path class="fil0"
            d="M306.33 161.48l-139.67 52.7 0 -25.34 83.65 -29.87c9.02,-3.23 18.39,-6.23 28.12,-8.97 -7.35,-2.11 -16.19,-5.02 -26.55,-8.83l-85.22 -31.04 0 -24.31 139.67 52.88 0 22.78z" />
        <path class="fil0"
            d="M106.33 157.65l-93 35.09 0 -16.87 55.7 -19.89c6,-2.15 12.24,-4.15 18.72,-5.97 -4.9,-1.4 -10.78,-3.34 -17.68,-5.88l-56.74 -20.67 0 -16.19 93 35.21 0 15.17z" />
 </g>
</svg>
