<?xml version="1.0" encoding="UTF-8"?>
<!DOCTYPE svg PUBLIC "-//W3C//DTD SVG 1.1//EN" "http://www.w3.org/Graphics/SVG/1.1/DTD/svg11.dtd">
<!-- Creator: CorelDRAW 2020 (64-Bit) -->
<svg xmlns="http://www.w3.org/2000/svg" xml:space="preserve" width="8.5px" height="11px" version="1.1" style="shape-rendering:geometricPrecision; text-rendering:geometricPrecision; image-rendering:optimizeQuality; fill-rule:evenodd; clip-rule:evenodd"
viewBox="0 0 8500 11000">
 <!--<defs>
  <style type="text/css">
   <![CDATA[
    .fil0 {fill:#5D69B3;fill-rule:nonzero}
   ]]>
  </style>
 </defs>-->
 <g id="Layer_x0020_1">
  <metadata id="CorelCorpID_0Corel-Layer"/>
  <g id="_2331029211824">
   <path class="fil0" d="M3995.96 3549.33c-167.31,30.46 -164.01,28.93 -187.15,81.85 -30.98,70.16 -47.51,138.78 -51.23,215.41 -2.06,38.16 -1.23,49.54 4.54,64.31 4.13,9.85 5.79,18.77 4.54,20 -1.65,0.93 -20.65,1.84 -42.56,2.15 -32.64,0.31 -45.02,1.85 -67.33,8.3 -59.91,17.24 -73.54,28.93 -108.65,96.31 -54.53,104.01 -173.51,362.5 -309.84,671.46 -75.6,170.78 -86.76,200.33 -83.87,220.94 3.71,27.08 60.32,108.32 91.3,131.71 16.52,12 54.94,26.16 106.58,38.46 35.12,8.31 59.08,12 132.61,20.93l20.24 2.46 -14.87 14.16c-49.99,48.93 -89.65,131.7 -97.91,204.33 -7.02,63.7 -3.72,95.09 13.63,138.47 26.85,66.17 30.16,92.31 29.75,221.56 -0.83,176.02 -13.22,283.72 -42.96,369.27 -14.87,42.47 -57.83,138.48 -88,196.95 -31.81,62.16 -42.56,96.93 -61.14,200.94 -17.77,99.71 -36.77,181.56 -47.52,206.17 -9.5,20.62 -14.87,27.39 -39.24,49.85 -32.64,30.15 -84.28,89.86 -107.82,125.24 -23.55,34.78 -28.51,54.16 -19.83,77.85 9.09,25.54 114.02,94.78 175.17,115.7 13.22,4.62 29.33,13.23 38.83,21.24 16.11,13.85 48.33,50.46 45.86,52.31 -5.79,4 -97.5,35.39 -103.69,35.39 -4.13,0 -18.18,-3.38 -31.4,-7.39 -35.52,-11.08 -66.93,-13.54 -188.8,-15.69 -61.14,-0.93 -124.35,-3.39 -140.46,-5.23 -16.52,-1.84 -59.08,-11.7 -98.73,-23.07 -131.37,-37.24 -142.11,-35.69 -199.95,27.7 -68.99,75.39 -98.74,138.47 -106.59,224.33 -3.71,41.85 -1.65,44.62 42.56,57.24 61.14,17.24 185.07,41.55 271.83,53.24 70.64,9.23 88.83,7.39 444.11,-44.93 119.39,-17.54 244.15,-34.78 277.62,-38.47 33.47,-3.69 74.37,-9.84 90.89,-14.15 55.36,-13.85 82.21,-8.92 131.78,25.23 16.94,11.39 38.83,23.39 49.16,26.77 27.68,9.23 81.8,5.85 178.05,-11.39 117.33,-20.93 130.96,-21.85 216.48,-14.16 49.16,4.62 88.83,6.46 124.36,5.54l52.06 -0.92 13.22 -10.77c7.43,-6.15 19.42,-22.16 26.85,-35.39 62.79,-113.56 181.36,-277.26 191.28,-264.33 1.24,1.54 0,8.92 -2.89,16.62 -2.89,7.69 -9.5,24.92 -14.46,38.46 -8.26,21.24 -9.5,32.31 -9.92,78.47 -0.41,45.23 0.83,56.62 7.44,70.46 13.63,29.23 43.79,46.77 122.28,71.7 54.53,17.24 120.63,42.47 164.01,63.08 93.37,44 89.65,44 286.29,-17.54 166.49,-52.31 203.26,-60.93 349.91,-83.39 139.63,-21.24 140.05,-21.24 139.22,-56.31 -0.42,-24.62 -15.29,-68.62 -47.1,-141.24 -26.02,-58.78 -49.99,-95.7 -84.28,-129.24 -31.81,-31.7 -54.95,-61.55 -58.66,-75.39 -4.13,-15.39 3.71,-11.7 16.52,7.69 14.87,22.77 37.6,46.46 85.1,88.63 77.67,69.24 122.7,128.32 183.84,240.02 57.42,105.25 71.06,120.01 114.03,126.17 29.75,4 195.82,-30.46 262.33,-54.46 35.11,-12.62 40.9,-21.23 37.6,-54.78 -4.13,-40.31 -48.75,-188.64 -79.33,-263.11 -17.35,-43.08 -38.83,-80.62 -52.46,-93.54 -33.05,-31.39 -335.45,-194.18 -360.24,-194.18 -17.35,0 -73.12,31.08 -178.06,98.47 -26.85,17.54 -44.62,24.61 -50.41,20.62 -3.3,-2.76 6.61,-19.69 23.14,-39.08 31.39,-36.93 137.98,-208.64 149.96,-240.95l4.96 -14.46 -32.64 -24.92c-37.19,-28 -123.53,-80.93 -152.86,-93.55 -26.02,-11.39 -45.85,-9.54 -119.8,11.08 -44.62,12.31 -63.2,16 -80.56,16 -26.44,0 -78.49,-10.15 -110.72,-21.54l-22.31 -8 2.06 -14.46c1.24,-8 19,-67.7 39.66,-132.63 20.66,-64.93 58.66,-188.94 85.1,-275.11 85.93,-282.8 230.11,-705 273.49,-801.62 13.63,-30.46 82.22,-201.56 104.52,-260.03 21.48,-56.31 29.75,-69.24 59.91,-90.47 44.2,-31.7 52.46,-56.62 48.74,-146.48 -2.89,-70.16 -3.3,-68.01 42.97,-180.02 58.25,-141.55 64.04,-165.25 46.69,-186.48 -12.39,-14.46 -40.9,-24 -65.27,-21.54 -40.07,4 -51.23,21.24 -109.89,166.79 -20.25,49.85 -46.27,99.09 -62.38,118.17 -13.22,15.69 -36.77,24.31 -71.47,26.77 -46.69,2.77 -50.81,5.23 -89.23,51.08 -31.81,37.54 -65.28,39.08 -110.72,4.62 -33.47,-25.23 -38.42,-27.08 -72.71,-27.08 -21.48,0 -47.1,3.07 -86.34,10.77 -83.45,16 -116.5,14.77 -159.05,-7.08 -66.51,-33.24 -110.3,-63.39 -138.4,-94.78 -11.98,-13.85 -40.07,-40.62 -62.38,-59.39 -94.19,-80.63 -108.24,-93.86 -114.85,-107.09 -12.81,-24.62 0,-30.46 73.95,-34.77 76.01,-4.31 109.07,-15.39 121.87,-41.54 2.48,-5.23 6.61,-20 9.5,-33.24 2.89,-13.23 7.85,-26.77 11.56,-30.15 3.72,-3.07 17.77,-8.92 31.4,-12.93l24.79 -7.07 2.48 -33.85c3.72,-48.62 11.57,-65.24 40.48,-88.93 12.8,-10.15 16.52,-16.93 22.72,-38.46 6.2,-20.93 10.33,-27.7 19.83,-34.46 7.02,-4.62 14.87,-8.62 18.18,-8.62 9.5,0 22.31,-11.69 22.31,-20 0,-13.54 -16.52,-32.93 -47.51,-55.7 -33.46,-24.92 -73.95,-44 -119.4,-56.62 -17.35,-4.62 -39.24,-12.31 -49.57,-16.62 -19.83,-8.61 -43.79,-28 -43.79,-35.69 0,-2.46 -8.67,-15.08 -18.59,-27.7 -21.07,-25.54 -21.48,-29.85 -13.63,-76.93 4.54,-29.24 4.54,-29.54 -6.61,-47.7 -6.2,-10.15 -15.29,-21.85 -20.25,-25.54 -19.83,-16 -109.89,-44.31 -233,-72.93 -77.67,-18.46 -326.37,-72.32 -330.91,-72.01 -1.65,0 -46.69,8 -99.97,17.85l-0.01 0 0.02 -0.02zm1379.82 1338.6c2.06,3.39 4.13,10.77 4.13,16.31 0,17.54 -22.72,93.55 -57.83,192.02 -18.59,52.32 -54.53,155.4 -80.56,228.95 -66.1,188.02 -83.87,235.1 -119.39,313.88 -67.75,151.71 -155.33,412.66 -227.63,677 -12.39,44.93 -25.2,87.09 -28.1,93.85l-6.2 12.31 -4.96 -13.85c-2.48,-7.7 -7.02,-16 -9.5,-18.78 -7.85,-7.69 -28.1,-14.46 -61.15,-20 -66.1,-11.08 -72.29,-17.24 -146.25,-149.24l-31.81 -57.24 68.99 -88.93c38.01,-48.93 98.32,-122.78 133.44,-164.32 118.98,-139.71 138.81,-164.32 174.34,-216.94 43.37,-64 54.12,-87.08 57.01,-121.86 2.06,-29.54 -7.43,-64.31 -26.02,-94.47 -19.42,-31.39 -25.2,-35.08 -89.64,-56 -32.64,-10.46 -141.71,-49.23 -242.92,-86.17 -194.17,-71.08 -271.42,-96.62 -324.71,-107.7 -38.01,-8 -63.62,-15.08 -63.62,-18.16 0,-4.31 29.33,-43.7 51.64,-68.93 12.81,-15.08 33.06,-42.78 44.2,-61.55 11.16,-19.07 27.68,-47.39 37.18,-62.78 28.1,-47.08 47.1,-59.69 109.89,-71.39 44.2,-8.61 64.45,-8 134.26,2.46 65.68,10.15 111.95,14.46 177.23,17.24 54.54,2.15 69.41,5.85 109.07,28 40.48,22.16 52.88,25.85 87.17,25.85 41.73,0 114.43,-8 134.26,-14.78 22.31,-7.39 31.39,-15.08 53.29,-43.69 31.4,-41.85 48.75,-54.16 98.74,-69.55 28.09,-8.92 39.66,-9.23 45.44,-1.54l0 0 -0.01 0zm-1179.46 763.46c130.13,11.08 280.92,40.31 323.48,63.39 0.83,0.31 -11.57,20 -27.27,43.39 -15.7,23.39 -58.25,92.93 -93.78,154.78 -35.94,61.85 -67.33,116.33 -70.64,121.55 -2.89,4.92 -27.27,28.93 -54.12,52.93 -76.43,68.01 -105.76,111.4 -106.18,156.32 0,20.93 1.65,27.08 11.57,42.16 6.61,9.84 24.37,27.7 40.07,40.31 48.75,39.39 91.72,60.31 137.57,66.47 32.22,4.31 57.02,18.77 116.5,67.7l46.69 38.46 -35.53 38.47c-19.42,21.24 -39.24,42.16 -44.2,45.85 -15.7,12.92 -40.48,21.54 -122.28,42.16 -44.2,11.39 -85.52,22.47 -91.72,24.92 -21.48,8.31 -21.89,10.15 -23.14,125.86 -0.83,59.08 -2.48,108.63 -4.13,109.86 -1.65,1.23 -28.09,8 -58.66,14.77 -61.56,14.16 -85.93,23.08 -97.49,36 -4.13,4.62 -23.14,30.16 -42.14,56.31 -42.56,58.78 -93.37,116.93 -102.05,116.93 -3.71,0 -28.92,-4.92 -56.19,-10.77 -27.27,-5.85 -66.51,-12.31 -87.58,-14.15 -44.62,-3.69 -46.69,-4.92 -70.64,-38.46 -27.27,-38.47 -53.29,-48.94 -135.09,-55.09l-26.85 -1.85 -13.63 -42.16c-7.85,-23.08 -20.24,-58.16 -28.09,-77.54 -14.04,-34.46 -14.04,-36 -9.5,-58.47 17.76,-85.55 95.84,-279.11 145.42,-361.27 11.56,-18.77 39.24,-68.62 61.97,-111.09 49.58,-91.7 74.78,-129.86 116.09,-176.02 36.35,-40.31 43.79,-53.54 65.28,-120.94 16.94,-52 32.22,-83.39 80.14,-166.17 15.29,-26.15 37.6,-67.7 49.99,-92.01 36.77,-72.93 66.1,-106.78 108.65,-127.09 21.07,-9.84 35.94,-10.46 97.5,-5.54l0 0 -0.02 0z"/>
  </g>
 </g>
</svg>
